<svg xmlns="http://www.w3.org/2000/svg" viewBox="0 0 453.68 309.05"><defs><style>.cls-1{fill:#fff;stroke:#000;stroke-miterlimit:10;stroke-width:5px;}</style></defs><g id="Layer_2" data-name="Layer 2"><g id="rounded"><path class="cls-1" d="M32.5,164.63v46.05A1.82,1.82,0,0,0,35.61,212l18.78-18.68a1.82,1.82,0,0,1,3.11,1.29v43.56a1.83,1.83,0,0,1-.71,1.45l-27,20.78a1.84,1.84,0,0,1-1.9.2L3.53,248.89a1.84,1.84,0,0,1-1-1.65V128.87a1.82,1.82,0,0,1,1-1.62l24-12.09a1.85,1.85,0,0,1,1.93.18l27.38,20.89a1.84,1.84,0,0,1,.72,1.45v43a1.82,1.82,0,0,1-3.1,1.29l-18.8-18.6A1.82,1.82,0,0,0,32.5,164.63Z"/><path class="cls-1" d="M242.08,90.64,181.86,68.23a1.82,1.82,0,0,0-1.92.41L89,159.12a1.78,1.78,0,0,0-.54,1.29v54.24a1.78,1.78,0,0,0,.54,1.29L180,306a1.83,1.83,0,0,0,1.89.42l60.2-21.19a1.83,1.83,0,0,0,1.22-1.72V92.35A1.81,1.81,0,0,0,242.08,90.64ZM180.77,227a1.83,1.83,0,0,1-2.93,1.45l-51.52-39.32a1.82,1.82,0,0,1,0-2.89l51.53-39.63a1.82,1.82,0,0,1,2.93,1.45Z"/><path class="cls-1" d="M327.87,4.32V114.69a1.78,1.78,0,0,1-.54,1.29l-55,54.65a1.78,1.78,0,0,0-.54,1.29v32.31a1.82,1.82,0,0,0,.54,1.3l54.69,54.12a1.83,1.83,0,0,0,1.89.42l35.62-12.54a1.83,1.83,0,0,0,1.22-1.72V19a1.8,1.8,0,0,0-1.1-1.67L330.41,2.65A1.82,1.82,0,0,0,327.87,4.32ZM324.94,212l-29.36-22.42a1.82,1.82,0,0,1,0-2.89l29.37-22.58a1.82,1.82,0,0,1,2.93,1.45v45A1.83,1.83,0,0,1,324.94,212Z"/><path class="cls-1" d="M451.18,184.35V137.78a1.84,1.84,0,0,0-.72-1.45l-27.38-20.89a1.85,1.85,0,0,0-1.93-.18l-24,12.09a1.82,1.82,0,0,0-1,1.62V247.34a1.84,1.84,0,0,0,1,1.65l24.34,11.68a1.84,1.84,0,0,0,1.9-.2l27-20.78a1.83,1.83,0,0,0,.71-1.45V194.8a1.82,1.82,0,0,0-3.12-1.27c-6.13,6.26-14.33,14.29-18.75,18.59a1.82,1.82,0,0,1-3.09-1.33h0a1.86,1.86,0,0,1,.54-1.27l23.89-23.89A1.81,1.81,0,0,0,451.18,184.35Zm-12.4-8.95-9.44,9.44a1.82,1.82,0,0,1-3.11-1.29c0-8,0-14.71,0-18.81a1.82,1.82,0,0,1,3.1-1.3l9.47,9.37A1.83,1.83,0,0,1,438.78,175.4Z"/></g></g></svg>